<?xml version="1.0" encoding="utf-8"?>
<!-- Generator: Adobe Illustrator 19.0.0, SVG Export Plug-In . SVG Version: 6.00 Build 0)  -->
<svg version="1.1" id="Layer_1" xmlns="http://www.w3.org/2000/svg" xmlns:xlink="http://www.w3.org/1999/xlink" x="0px" y="0px" viewBox="0 0 193.1 267.5" style="enable-background:new 0 0 193.1 267.5;" xml:space="preserve">
		<style type="text/css">
			.st0{fill:none;stroke:#B9B9BA;stroke-width:4;stroke-miterlimit:10;}
			.st1{fill:#6FC076;}
		</style>
		<path id="XMLID_2_" class="st0" d="M18.7,8.2c36.6-8.3,119-8.3,155.6,0c9.8,2.2,16.7,10.8,16.7,20.8v135.1c0,2.9-0.6,5.8-1.7,8.5
			c-12,28.3-53.9,77.2-83.6,91c-5.7,2.7-12.4,2.6-18.1-0.2c-30.2-14.6-72.5-63.5-84.1-91.6c-1-2.4-1.3-4.9-1.4-7.5L2,29.1
			C2,19.1,8.9,10.5,18.7,8.2z"/>
		<path id="XMLID_166_" class="st1" d="M38.2,39.7c27.4-6.2,89.2-6.2,116.6,0c7.3,1.7,12.5,8.1,12.5,15.6v101.2c0,2.2-0.4,4.3-1.3,6.4
			c-9,21.2-40.4,57.8-62.7,68.1c-4.3,2-9.3,1.9-13.5-0.2c-22.6-11-54.4-47.6-63-68.6c-0.7-1.8-1-3.7-1-5.6L25.7,55.3
			C25.7,47.8,30.9,41.4,38.2,39.7z"/>
</svg>
