<?xml version="1.0" encoding="utf-8"?>
<!-- Generator: Adobe Illustrator 19.0.0, SVG Export Plug-In . SVG Version: 6.00 Build 0)  -->
<svg version="1.1" id="Layer_1" xmlns="http://www.w3.org/2000/svg" xmlns:xlink="http://www.w3.org/1999/xlink" x="0px" y="0px"
	 viewBox="0 0 34 259.3" style="enable-background:new 0 0 34 259.3;" xml:space="preserve">
<style type="text/css">
	.st0{fill:#919090;stroke:#ADADAD;stroke-miterlimit:10;}
	.st1{fill:#6FC076;}
	.st2{fill:none;stroke:#B9B9BA;stroke-miterlimit:10;}
	.st3{fill:none;stroke:#C6C5C5;stroke-miterlimit:10;}
	.st4{fill:none;stroke:#C6C5C4;stroke-miterlimit:10;}
</style>
<g id="XMLID_1_">
	<path id="XMLID_2_" class="st0" d="M17,258.8L17,258.8c-3.9,0-7-3.2-7-7v-39.3c0-3.9,3.1-7,7-7h0c3.8,0,7,3.1,7,7v39.3
		C24,255.7,20.9,258.8,17,258.8z"/>
	<path id="XMLID_43_" class="st1" d="M29,191.3c0-6.6-5.4-12-12-12s-12,5.4-12,12v2.6h24V191.3z"/>
	<rect id="XMLID_45_" x="5" y="192" class="st1" width="24" height="18.1"/>
	<path id="XMLID_44_" class="st1" d="M5,210.1v5.5c2.1,1.7,4.7,2.7,7.5,2.7h9c2.8,0,5.4-1,7.5-2.7v-5.5H5z"/>
	<path id="XMLID_3_" class="st2" d="M21.5,217.8h-9c-6.6,0-12-5.4-12-12V12.5c0-6.6,5.4-12,12-12h9c6.6,0,12,5.4,12,12v193.3
		C33.5,212.4,28.1,217.8,21.5,217.8z"/>
	<line id="XMLID_4_" class="st3" x1="9" y1="23.8" x2="10" y2="205.3"/>
	<line id="XMLID_5_" class="st4" x1="9" y1="32.8" x2="17.6" y2="32.8"/>
	<line id="XMLID_10_" class="st4" x1="9" y1="57.8" x2="17.6" y2="57.8"/>
	<line id="XMLID_6_" class="st4" x1="9" y1="27.5" x2="14" y2="27.5"/>
	<line id="XMLID_7_" class="st4" x1="9.5" y1="37.8" x2="14.5" y2="37.8"/>
	<line id="XMLID_8_" class="st4" x1="9.5" y1="42.8" x2="14.5" y2="42.8"/>
	<line id="XMLID_9_" class="st4" x1="9.5" y1="47.8" x2="14.5" y2="47.8"/>
	<line id="XMLID_11_" class="st4" x1="9.5" y1="52.8" x2="14.5" y2="52.8"/>
	<line id="XMLID_15_" class="st4" x1="9" y1="82.8" x2="17.6" y2="82.8"/>
	<line id="XMLID_14_" class="st4" x1="9.5" y1="62.8" x2="14.5" y2="62.8"/>
	<line id="XMLID_13_" class="st4" x1="9.5" y1="67.8" x2="14.5" y2="67.8"/>
	<line id="XMLID_12_" class="st4" x1="9.5" y1="72.8" x2="14.5" y2="72.8"/>
	<line id="XMLID_16_" class="st4" x1="9.5" y1="77.8" x2="14.5" y2="77.8"/>
	<line id="XMLID_20_" class="st4" x1="9" y1="107.8" x2="17.6" y2="107.8"/>
	<line id="XMLID_19_" class="st4" x1="9.5" y1="87.8" x2="14.5" y2="87.8"/>
	<line id="XMLID_18_" class="st4" x1="9.5" y1="92.8" x2="14.5" y2="92.8"/>
	<line id="XMLID_17_" class="st4" x1="9.5" y1="97.8" x2="14.5" y2="97.8"/>
	<line id="XMLID_21_" class="st4" x1="9.5" y1="102.8" x2="14.5" y2="102.8"/>
	<line id="XMLID_25_" class="st4" x1="9.5" y1="132.8" x2="17.6" y2="132.8"/>
	<line id="XMLID_24_" class="st4" x1="9.5" y1="112.8" x2="14.5" y2="112.8"/>
	<line id="XMLID_23_" class="st4" x1="9.5" y1="117.8" x2="14.5" y2="117.8"/>
	<line id="XMLID_22_" class="st4" x1="9.5" y1="122.8" x2="14.5" y2="122.8"/>
	<line id="XMLID_26_" class="st4" x1="9.5" y1="127.8" x2="14.5" y2="127.8"/>
	<line id="XMLID_31_" class="st4" x1="9.5" y1="157.8" x2="17.6" y2="157.8"/>
	<line id="XMLID_30_" class="st4" x1="9.5" y1="137.8" x2="14.5" y2="137.8"/>
	<line id="XMLID_29_" class="st4" x1="9.5" y1="142.8" x2="14.5" y2="142.8"/>
	<line id="XMLID_28_" class="st4" x1="9.5" y1="147.8" x2="14.5" y2="147.8"/>
	<line id="XMLID_27_" class="st4" x1="9.5" y1="152.8" x2="14.5" y2="152.8"/>
	<line id="XMLID_36_" class="st4" x1="9.5" y1="182.8" x2="17.6" y2="182.8"/>
	<line id="XMLID_35_" class="st4" x1="9.5" y1="162.8" x2="14.5" y2="162.8"/>
	<line id="XMLID_34_" class="st4" x1="9.5" y1="167.8" x2="14.5" y2="167.8"/>
	<line id="XMLID_33_" class="st4" x1="9.5" y1="172.8" x2="14.5" y2="172.8"/>
	<line id="XMLID_32_" class="st4" x1="9.5" y1="177.8" x2="14.5" y2="177.8"/>
	<line id="XMLID_40_" class="st4" x1="9.5" y1="187.8" x2="14.5" y2="187.8"/>
	<line id="XMLID_39_" class="st4" x1="9.5" y1="192.8" x2="14.5" y2="192.8"/>
	<line id="XMLID_38_" class="st4" x1="9.5" y1="197.8" x2="14.5" y2="197.8"/>
	<line id="XMLID_37_" class="st4" x1="9.5" y1="202.8" x2="14.5" y2="202.8"/>
</g>
</svg>
