<?xml version="1.0" encoding="utf-8"?>
<!-- Generator: Adobe Illustrator 19.0.0, SVG Export Plug-In . SVG Version: 6.00 Build 0)  -->
<svg version="1.1" id="Layer_1" xmlns="http://www.w3.org/2000/svg" xmlns:xlink="http://www.w3.org/1999/xlink" x="0px" y="0px"
	 viewBox="-462 151.7 34 259.3" style="enable-background:new -462 151.7 34 259.3;" xml:space="preserve">
<style type="text/css">
	.st0{fill:#919090;stroke:#ADADAD;stroke-miterlimit:10;}
	.st1{fill:#6FC076;}
	.st2{fill:none;stroke:#B9B9BA;stroke-miterlimit:10;}
	.st3{fill:none;stroke:#C6C5C5;stroke-miterlimit:10;}
	.st4{fill:none;stroke:#C6C5C4;stroke-miterlimit:10;}
</style>
<g id="thermo-green">
	<path id="XMLID_2_" class="st0" d="M-445,410.5L-445,410.5c-3.9,0-7-3.2-7-7v-39.3c0-3.9,3.1-7,7-7l0,0c3.8,0,7,3.1,7,7v39.3
		C-438,407.4-441.1,410.5-445,410.5z"/>
	<path class="st1" d="M-445,331c-6.6,0-12,5.4-12,12v0.7v1.9v16.2v5.5c2.1,1.7,4.7,2.7,7.5,2.7h9c2.8,0,5.4-1,7.5-2.7v-5.5v-16.2
		v-1.9V343C-433,336.4-438.4,331-445,331z"/>
	<path id="XMLID_3_" class="st2" d="M-440.5,369.5h-9c-6.6,0-12-5.4-12-12V164.2c0-6.6,5.4-12,12-12h9c6.6,0,12,5.4,12,12v193.3
		C-428.5,364.1-433.9,369.5-440.5,369.5z"/>
	<line id="XMLID_4_" class="st3" x1="-453" y1="175.5" x2="-452" y2="357"/>
	<line id="XMLID_5_" class="st4" x1="-453" y1="184.5" x2="-444.4" y2="184.5"/>
	<line id="XMLID_10_" class="st4" x1="-453" y1="209.5" x2="-444.4" y2="209.5"/>
	<line id="XMLID_6_" class="st4" x1="-453" y1="179.2" x2="-448" y2="179.2"/>
	<line id="XMLID_7_" class="st4" x1="-452.5" y1="189.5" x2="-447.5" y2="189.5"/>
	<line id="XMLID_8_" class="st4" x1="-452.5" y1="194.5" x2="-447.5" y2="194.5"/>
	<line id="XMLID_9_" class="st4" x1="-452.5" y1="199.5" x2="-447.5" y2="199.5"/>
	<line id="XMLID_11_" class="st4" x1="-452.5" y1="204.5" x2="-447.5" y2="204.5"/>
	<line id="XMLID_15_" class="st4" x1="-453" y1="234.5" x2="-444.4" y2="234.5"/>
	<line id="XMLID_14_" class="st4" x1="-452.5" y1="214.5" x2="-447.5" y2="214.5"/>
	<line id="XMLID_13_" class="st4" x1="-452.5" y1="219.5" x2="-447.5" y2="219.5"/>
	<line id="XMLID_12_" class="st4" x1="-452.5" y1="224.5" x2="-447.5" y2="224.5"/>
	<line id="XMLID_16_" class="st4" x1="-452.5" y1="229.5" x2="-447.5" y2="229.5"/>
	<line id="XMLID_20_" class="st4" x1="-453" y1="259.5" x2="-444.4" y2="259.5"/>
	<line id="XMLID_19_" class="st4" x1="-452.5" y1="239.5" x2="-447.5" y2="239.5"/>
	<line id="XMLID_18_" class="st4" x1="-452.5" y1="244.5" x2="-447.5" y2="244.5"/>
	<line id="XMLID_17_" class="st4" x1="-452.5" y1="249.5" x2="-447.5" y2="249.5"/>
	<line id="XMLID_21_" class="st4" x1="-452.5" y1="254.5" x2="-447.5" y2="254.5"/>
	<line id="XMLID_25_" class="st4" x1="-452.5" y1="284.5" x2="-444.4" y2="284.5"/>
	<line id="XMLID_24_" class="st4" x1="-452.5" y1="264.5" x2="-447.5" y2="264.5"/>
	<line id="XMLID_23_" class="st4" x1="-452.5" y1="269.5" x2="-447.5" y2="269.5"/>
	<line id="XMLID_22_" class="st4" x1="-452.5" y1="274.5" x2="-447.5" y2="274.5"/>
	<line id="XMLID_26_" class="st4" x1="-452.5" y1="279.5" x2="-447.5" y2="279.5"/>
	<line id="XMLID_31_" class="st4" x1="-452.5" y1="309.5" x2="-444.4" y2="309.5"/>
	<line id="XMLID_30_" class="st4" x1="-452.5" y1="289.5" x2="-447.5" y2="289.5"/>
	<line id="XMLID_29_" class="st4" x1="-452.5" y1="294.5" x2="-447.5" y2="294.5"/>
	<line id="XMLID_28_" class="st4" x1="-452.5" y1="299.5" x2="-447.5" y2="299.5"/>
	<line id="XMLID_27_" class="st4" x1="-452.5" y1="304.5" x2="-447.5" y2="304.5"/>
	<line id="XMLID_36_" class="st4" x1="-452.5" y1="334.5" x2="-444.4" y2="334.5"/>
	<line id="XMLID_35_" class="st4" x1="-452.5" y1="314.5" x2="-447.5" y2="314.5"/>
	<line id="XMLID_34_" class="st4" x1="-452.5" y1="319.5" x2="-447.5" y2="319.5"/>
	<line id="XMLID_33_" class="st4" x1="-452.5" y1="324.5" x2="-447.5" y2="324.5"/>
	<line id="XMLID_32_" class="st4" x1="-452.5" y1="329.5" x2="-447.5" y2="329.5"/>
	<line id="XMLID_40_" class="st4" x1="-452.5" y1="339.5" x2="-447.5" y2="339.5"/>
	<line id="XMLID_39_" class="st4" x1="-452.5" y1="344.5" x2="-447.5" y2="344.5"/>
	<line id="XMLID_38_" class="st4" x1="-452.5" y1="349.5" x2="-447.5" y2="349.5"/>
	<line id="XMLID_37_" class="st4" x1="-452.5" y1="354.5" x2="-447.5" y2="354.5"/>
</g>
</svg>
